<svg width="144" height="36" viewBox="0 0 144 36" fill="none" xmlns="http://www.w3.org/2000/svg">
<g clip-path="url(#clip0_1_193)">
<path d="M9.41781 15.8902C4.47656 16.4835 0.951925 20.9702 1.54531 25.9115L1.61158 26.4633L3.1939 27.7064L2.95798 25.7418C2.45829 21.5808 5.42638 17.8025 9.58746 17.3028C13.7485 16.8031 17.5268 19.7712 18.0265 23.9323L18.2624 25.8968L19.5054 24.3145L19.4392 23.7627C18.8458 18.8214 14.3591 15.2968 9.41781 15.8902ZM9.9833 20.5991C7.64269 20.8801 5.97314 23.0054 6.25422 25.346L6.93562 31.0201C6.96527 31.2671 6.78889 31.4917 6.54191 31.5213C6.42338 31.5355 6.30414 31.502 6.21025 31.4282L1.26345 27.5421L1.50334 29.5397L5.33139 32.547C5.72202 32.8538 6.21836 32.9932 6.71155 32.934C7.73875 32.8106 8.47164 31.8777 8.34829 30.8505L7.66689 25.1764C7.4795 23.616 8.59255 22.1991 10.1529 22.0117C11.7133 21.8243 13.1302 22.9374 13.3176 24.4978L13.999 30.1719C14.1223 31.1991 15.0553 31.932 16.0825 31.8087C16.5757 31.7494 17.0249 31.4965 17.3318 31.1059L18.1457 30.0698L19.3887 28.4875L20.339 27.2778L20.0991 25.2802L19.2202 26.3989L18.2699 27.6086L17.0269 29.1909L16.213 30.227C16.1392 30.3209 16.0313 30.3817 15.9128 30.396C15.6658 30.4256 15.4413 30.2493 15.4116 30.0023L14.7302 24.3281C14.4492 21.9875 12.3239 20.318 9.9833 20.5991ZM10.266 22.9535C9.22579 23.0784 8.48375 24.023 8.60867 25.0633L9.29007 30.7374C9.47589 32.2848 8.372 33.69 6.82465 33.8758C6.08168 33.9649 5.33354 33.7556 4.74508 33.2933L1.66332 30.8719L1.90321 32.8695L3.86622 34.412C4.75142 35.1074 5.87666 35.4226 6.9943 35.2884C9.32181 35.0089 10.9822 32.8953 10.7027 30.5678L10.0213 24.8936C9.99011 24.6335 10.1756 24.3974 10.4357 24.3662C10.6958 24.335 10.9319 24.5205 10.9631 24.7805L11.6445 30.4547C11.924 32.7822 14.0377 34.4426 16.3652 34.1631C17.4828 34.0288 18.5014 33.4562 19.1968 32.571L20.7388 30.6076L20.4989 28.61L18.0781 31.6922C17.6158 32.2806 16.9385 32.6612 16.1956 32.7504C14.6482 32.9363 13.243 31.8324 13.0572 30.285L12.3758 24.6109C12.2509 23.5706 11.3063 22.8286 10.266 22.9535ZM9.70055 18.2446C6.05963 18.6818 3.46253 21.9878 3.89976 25.6288L4.24878 28.535L5.83109 29.7781L5.31244 25.4591C4.9689 22.5984 7.00949 20.0008 9.8702 19.6573C12.7309 19.3137 15.3285 21.3543 15.672 24.215L16.1907 28.534L17.4337 26.9517L17.0847 24.0454C16.6475 20.4045 13.3415 17.8074 9.70055 18.2446Z" fill="#A7A7A7"/>
<path d="M125.399 7.21667L128.79 6.80952C130.014 6.6625 131.222 6.8613 132.291 7.32532L132.18 6.40237L135.57 5.99523C139.319 5.5451 142.718 8.2323 143.165 11.9618L143.437 14.222L141.177 14.4935L140.905 12.2332C140.607 9.74688 138.328 7.95692 135.842 8.2555L134.712 8.39122L134.804 9.16348C135.649 10.1512 136.22 11.401 136.385 12.776L136.656 15.0363L134.396 15.3078L134.124 13.0475C133.826 10.5612 131.547 8.77122 129.061 9.0698L127.931 9.20551L128.745 15.9863L126.485 16.2578L125.399 7.21667Z" fill="#A7A7A7"/>
<path d="M124.979 16.4576L118.198 17.2719C114.45 17.7221 111.053 15.0537 110.603 11.3054L110.332 9.04513L112.592 8.7737L112.864 11.034C113.162 13.5203 115.422 15.3125 117.927 15.0117L122.448 14.4688L121.633 7.68797L123.894 7.41654L124.979 16.4576Z" fill="#A7A7A7"/>
<path d="M109.047 9.19931L109.319 11.4596L101.408 12.4096C100.165 12.5589 99.2696 13.6982 99.4189 14.9413C99.5682 16.1845 100.707 17.0794 101.951 16.9301L102.195 16.9007C102.761 16.8329 103.303 16.5767 103.693 16.1668L105.344 14.4782L105.415 14.4315L106.069 13.8369C107.069 12.9335 108.592 12.8844 109.649 13.7319C110.955 14.7406 111.072 16.6754 109.916 17.8652L109.493 18.3173L105.895 18.7493L108.293 16.2832C108.515 16.0654 108.472 15.7075 108.238 15.5064C108.048 15.3572 107.763 15.3723 107.591 15.5268L106.953 16.1002L105.316 17.7488C104.55 18.5287 103.559 19.0298 102.467 19.161L102.222 19.1904C99.7358 19.489 97.4572 17.699 97.1586 15.2127C96.8578 12.7076 98.65 10.4479 101.136 10.1493L109.047 9.19931Z" fill="#A7A7A7"/>
<path d="M82.7011 12.3441L91.7422 11.2584C94.2285 10.9598 96.507 12.7498 96.8056 15.2361C97.1064 17.7412 95.3142 20.0009 92.8279 20.2995L92.0368 20.3945C90.8313 20.5393 89.5972 20.2862 88.5649 19.6459L85.6512 17.8176L86.0471 21.1138L83.7868 21.3852L82.7011 12.3441ZM85.235 14.3518L85.3052 14.9357L89.765 17.7057C90.3632 18.0733 91.0707 18.2368 91.7676 18.1531L92.5587 18.0581C93.8019 17.9088 94.6969 16.7695 94.5476 15.5263C94.396 14.2644 93.259 13.3882 92.0159 13.5375L85.235 14.3518Z" fill="#A7A7A7"/>
<path d="M82.6609 21.5206L80.4006 21.792L79.3149 12.7509L81.5752 12.4795L82.6609 21.5206Z" fill="#A7A7A7"/>
<path d="M73.6225 20.313C75.506 20.0868 76.8319 18.399 76.6057 16.5154L76.47 15.3853L69.6892 16.1996C68.446 16.3489 67.551 17.4881 67.7003 18.7313C67.8519 19.9933 68.9889 20.8694 70.232 20.7201L73.6225 20.313ZM78.4588 12.8536L78.866 16.244C79.2415 19.3707 77.0206 22.1978 73.8939 22.5733L70.5035 22.9804C68.0172 23.279 65.7409 21.5079 65.4401 19.0027C65.1415 16.5164 66.9314 14.2379 69.4177 13.9393L78.4588 12.8536Z" fill="#A7A7A7"/>
<path d="M64.1466 14.5724L64.9632 21.3721C65.0627 22.2008 64.8586 23.047 64.3659 23.7176L60.7306 24.1541L62.3594 22.6019C62.6148 22.3419 62.7436 21.9826 62.7029 21.6435L62.5762 20.5887L60.1783 23.0549C59.3269 23.9214 58.1878 24.4595 56.9823 24.6042L56.1912 24.6992C53.7049 24.9978 51.4287 23.2267 51.1278 20.7216C50.8292 18.2353 52.6192 15.9567 55.1055 15.6581L64.1466 14.5724ZM55.3769 17.9184C54.1338 18.0677 53.2388 19.207 53.3881 20.4501C53.5396 21.7121 54.6766 22.5883 55.9198 22.439L56.7109 22.344C57.4078 22.2603 58.0587 21.9528 58.553 21.454L62.2301 17.7069L62.1578 17.1041L55.3769 17.9184Z" fill="#A7A7A7"/>
<path d="M45.476 23.693C47.3595 23.4668 48.6854 21.779 48.4592 19.8955L48.3235 18.7653L41.5427 19.5796C40.2995 19.7289 39.4045 20.8682 39.5538 22.1113C39.7054 23.3733 40.8424 24.2495 42.0855 24.1002L45.476 23.693ZM50.3123 16.2336L50.7194 19.6241C51.0949 22.7508 48.8741 25.5778 45.7474 25.9533L42.357 26.3605C39.8707 26.659 37.5944 24.8879 37.2936 22.3828C36.995 19.8965 38.7849 17.6179 41.2712 17.3194L50.3123 16.2336Z" fill="#A7A7A7"/>
<path d="M27.218 19.0071L27.65 22.6047C27.6862 22.9061 27.8331 23.1751 28.0652 23.3574L29.6475 24.6004C30.3648 25.1639 31.2554 25.42 32.1595 25.3114L37.0756 24.7211L37.347 26.9813L32.4309 27.5717C30.9429 27.7504 29.4202 27.3218 28.2387 26.3937L26.6564 25.1507C25.9579 24.5849 25.496 23.7614 25.3897 22.8762L24.9577 19.2786L27.218 19.0071Z" fill="#A7A7A7"/>
</g>
<defs>
<clipPath id="clip0_1_193">
<rect width="142.749" height="18.97" fill="white" transform="translate(0 17.0211) rotate(-6.84776)"/>
</clipPath>
</defs>
</svg>
