<svg width="84" height="42" viewBox="0 0 84 42" fill="none" xmlns="http://www.w3.org/2000/svg">
<g clip-path="url(#clip0_1_231)">
<path d="M47.9786 8.90969C48.1319 9.0426 48.3236 9.12515 48.53 9.06074C50.3205 8.50121 52.0627 7.78987 53.6502 6.78036C53.8412 6.65895 53.9762 6.40395 54.0364 6.19526C54.1051 5.9567 54.1166 5.6352 54.0303 5.39805C53.9585 5.20141 53.8425 4.97342 53.6358 4.88947C53.4381 4.80915 53.2495 4.82936 53.0669 4.94543C52.5582 5.26903 52.0321 5.56358 51.4918 5.83124C50.4658 6.32161 49.3963 6.70936 48.3114 7.04835C47.841 7.19533 47.6318 7.82005 47.6966 8.26799C47.7293 8.49418 47.7987 8.75377 47.9786 8.90969Z" fill="#A7A7A7"/>
<path d="M77.1677 7.33521C77.0811 7.18218 76.9471 6.9992 76.7496 6.9969C76.5409 6.99453 76.4148 7.11385 76.2802 7.25986C75.6037 7.99416 75.0728 8.84688 74.4018 9.58483C74.1795 9.81369 73.9412 10.0251 73.6857 10.2167C73.7562 10.0352 73.8287 9.85455 73.9059 9.67581C74.1435 9.12452 74.4132 8.58771 74.711 8.06655C74.8279 7.8697 74.941 7.67594 75.0109 7.45223C75.1084 7.14117 75.085 6.73111 74.9345 6.43981C74.8377 6.25237 74.5888 5.9952 74.3463 6.12404C74.2127 6.19509 74.134 6.25619 74.0316 6.37892C73.9987 6.41827 73.9677 6.45923 73.9361 6.49966C73.8627 6.59448 73.79 6.68978 73.7173 6.78549C73.5714 6.97841 73.4273 7.17289 73.2846 7.36856C73.0129 7.74152 72.7468 8.11857 72.4813 8.49582C71.9609 9.23421 71.4405 9.97283 70.8786 10.6803C70.7224 10.8767 70.5637 11.0711 70.4008 11.2627C70.4905 11.0466 70.5766 10.8289 70.6603 10.6104C70.9911 9.74421 71.2839 8.86379 71.6327 8.00437C71.7346 7.75332 71.8412 7.50392 71.954 7.25747C72.008 7.13887 72.0639 7.02101 72.121 6.90394C72.1516 6.84134 72.1846 6.77955 72.214 6.71645C72.3008 6.53198 72.3351 6.34372 72.3692 6.1429C72.4042 5.93141 72.3544 5.59163 72.2469 5.40146C72.1487 5.22766 72.0327 5.1057 71.8287 5.06313C71.5153 4.99773 71.2737 5.42095 71.1046 5.63337C70.9929 5.77345 70.8812 5.91344 70.7695 6.05323C70.5231 6.36168 70.2754 6.66968 70.0277 6.97734C69.4975 7.63644 68.9654 8.29438 68.4339 8.95274C68.0168 9.46931 67.5992 9.9854 67.1828 10.5029C67.3038 10.0389 67.4217 9.57358 67.5372 9.1077C67.641 8.68918 67.7477 8.27115 67.8455 7.85136C67.9555 7.38102 67.9541 6.78014 67.5926 6.40778C67.3539 6.1617 66.984 6.11584 66.713 6.34464C66.4563 6.56123 66.3249 6.91283 66.1698 7.20508C66.059 7.41413 65.9489 7.6232 65.8381 7.83243C65.6311 8.224 65.424 8.61564 65.2158 9.00672C64.8416 9.71024 64.4644 10.4126 64.0652 11.1028C63.6917 11.7422 63.2961 12.3845 62.7983 12.9345C62.6352 13.0996 62.4581 13.2507 62.2615 13.3743C62.1191 13.4462 61.9696 13.5001 61.8132 13.5326C61.8144 13.5247 61.815 13.5168 61.8162 13.5089C61.8199 13.4876 61.8242 13.4662 61.8285 13.445C61.8781 13.2081 61.9425 12.9744 62.0142 12.7432C62.0497 12.627 62.0888 12.5117 62.1279 12.3966L62.1289 12.3941C62.1528 12.3283 62.1767 12.2628 62.2013 12.1975C62.5481 11.2779 62.9623 10.3831 63.4035 9.50575C63.4992 9.31588 63.5956 9.12626 63.6962 8.93897C63.8 8.74625 63.8257 8.50388 63.8261 8.29078C63.8269 8.09187 63.8039 7.86359 63.7038 7.68671C63.6399 7.57419 63.5608 7.46836 63.4492 7.39926C63.2946 7.30341 63.0889 7.35735 62.957 7.46168C61.7855 8.38771 60.6275 9.33272 59.5035 10.3162L59.5033 10.3132C59.5041 10.2851 59.5044 10.2569 59.5053 10.2288C59.5083 10.1239 59.5135 10.019 59.5212 9.91419C59.5288 9.80996 59.5388 9.70586 59.5506 9.60209C59.5565 9.55311 59.5741 9.44951 59.5841 9.38535C59.6143 9.23685 59.6464 9.08909 59.6879 8.9431C59.702 8.89447 59.7178 8.84675 59.7331 8.79867C59.7531 8.74357 59.7887 8.64516 59.8072 8.60124C59.8357 8.53392 59.8672 8.4682 59.8988 8.40225C60.0643 8.15718 60.2268 7.90994 60.3837 7.65871C60.5216 7.43702 60.6066 7.21167 60.6291 6.94844C60.6482 6.71993 60.623 6.41311 60.5068 6.20701C60.4201 6.05395 60.2862 5.871 60.0886 5.86867C59.8858 5.86635 59.7447 5.98073 59.6198 6.13162C59.3791 6.42204 59.1763 6.73471 59.0044 7.06292C58.4342 7.88227 57.8111 8.66132 57.1389 9.40381C57.0596 9.49151 56.9795 9.57879 56.8995 9.66601C56.8467 9.30002 56.7301 8.92607 56.5355 8.61863C56.3105 8.26321 56.0092 7.98003 55.5761 7.92272C55.2002 7.87304 54.8494 8.03443 54.5316 8.21013C54.2113 8.38718 53.9281 8.6252 53.6641 8.87688C53.0162 9.49455 52.448 10.1867 51.9196 10.9079C51.9852 10.7575 52.0513 10.6071 52.1131 10.4552C52.2472 10.1257 52.3121 9.73013 52.1972 9.38183C52.1172 9.13947 51.9876 8.90645 51.7313 8.83033C51.3258 8.70988 51.0111 9.1355 50.789 9.41308C50.5199 9.74953 50.244 10.0786 49.9877 10.4254C49.6569 10.8727 49.3409 11.3307 49.0289 11.7912C48.6672 12.325 48.3117 12.8628 47.956 13.4005C48.1779 12.8264 48.3733 12.2347 48.4374 11.6262C48.4849 11.1754 48.4367 10.6194 48.1164 10.2673C47.88 10.0073 47.5613 9.96421 47.2354 10.0561C47.0602 10.1055 46.8983 10.2 46.7398 10.2862C46.5815 10.3724 46.4301 10.4704 46.2826 10.5738C46.0306 10.7504 45.7885 10.9411 45.5516 11.138C45.5139 11.0584 45.4649 10.9859 45.4004 10.9274C45.2634 10.8033 45.0656 10.6998 44.8762 10.7788C43.4646 11.3673 42.162 12.207 41.0578 13.2658C40.4721 13.8273 39.9284 14.4236 39.4515 15.0811C38.9214 15.8121 38.4302 16.59 38.137 17.4485C38.016 17.8028 37.9446 18.1896 37.9342 18.5722C37.3692 19.0741 36.8014 19.573 36.2317 20.0698C36.9745 18.7288 37.704 17.3805 38.4073 16.0186C38.6198 15.6073 38.8333 15.1955 39.0255 14.7741C39.1278 14.5499 39.2336 14.3196 39.2973 14.0815C39.4047 13.6799 39.3929 13.145 39.0756 12.8304C38.9188 12.6748 38.7371 12.6292 38.5302 12.6742C38.3681 12.7095 38.2498 12.8377 38.1387 12.9477C37.9547 13.1299 37.8068 13.3534 37.6571 13.5635C37.5437 13.7227 37.4328 13.8834 37.3224 14.0447C37.2247 13.8302 37.1029 13.6321 36.9494 13.4437C36.7906 13.2487 36.5704 13.0713 36.3352 12.9794C35.4533 12.6348 34.5689 13.1612 33.9055 13.7185C33.2652 14.2564 32.7006 14.8779 32.1607 15.5164C32.1341 15.5398 32.108 15.5646 32.0835 15.5919C31.9824 15.7051 31.8761 15.8129 31.766 15.9169C31.6006 16.0544 31.4242 16.1763 31.2337 16.2763C31.0775 16.3393 30.9162 16.3845 30.7498 16.4105C30.6563 16.4147 30.5628 16.4148 30.47 16.4072C30.4671 16.3357 30.4632 16.2641 30.4573 16.1925C30.3999 15.4874 30.1631 14.7148 29.6661 14.1927C29.3716 13.8833 28.9634 13.7471 28.5448 13.8165C28.3219 13.8534 28.1302 13.9729 27.9744 14.1337C27.8871 14.1456 27.8027 14.1763 27.7293 14.2335C26.5407 15.1615 25.4727 16.2193 24.5299 17.3839C24.5079 17.4053 24.4871 17.4279 24.4687 17.4528C24.448 17.4808 24.4271 17.5087 24.4064 17.5366C24.1691 17.8355 23.9407 18.1419 23.7201 18.4543C22.6873 19.8236 21.6202 21.1681 20.4401 22.4144C20.0187 22.8594 19.5826 23.2903 19.1289 23.7024C18.5941 24.1759 18.034 24.6211 17.4377 25.015C17.2435 25.1432 17.1069 25.3819 17.0431 25.5994C16.9732 25.8377 16.9625 26.1602 17.0512 26.3967C17.1258 26.5957 17.2467 26.8224 17.4565 26.9062C17.6551 26.9855 17.857 26.9721 18.0395 26.8515C19.2732 26.0366 20.3711 25.0129 21.3846 23.9412C21.6662 23.6433 21.9411 23.3392 22.2112 23.0311C22.2283 23.0847 22.2466 23.138 22.2676 23.1903C22.5115 23.7998 22.9758 24.3251 23.6054 24.551C24.2293 24.7748 24.8996 24.7435 25.5235 24.5308C27.2442 23.9442 28.4262 22.5203 29.2384 20.945C29.1651 21.4722 29.1578 22.0041 29.3277 22.5216C29.5149 23.0923 29.915 23.6318 30.553 23.7024C31.0189 23.754 31.4602 23.5177 31.8446 23.2854C32.408 22.9449 32.9065 22.4902 33.3677 22.0141C33.1584 22.3822 32.9482 22.7498 32.7381 23.1174C31.9341 23.826 31.1349 24.5404 30.3454 25.2655C29.3295 25.6182 28.3172 25.9815 27.3097 26.358C26.2136 26.7676 25.1227 27.1916 24.0384 27.6318C22.9989 28.0537 21.9653 28.4903 20.9389 28.9432C19.904 29.3999 18.8766 29.8739 17.8569 30.3635C16.9361 30.8057 16.0226 31.2629 15.1182 31.7374C14.2561 32.1895 13.4023 32.6574 12.5586 33.143C11.7654 33.5997 10.9812 34.0721 10.2087 34.5629C9.48184 35.0246 8.76528 35.5025 8.062 35.9994C7.72779 36.2356 7.39665 36.4761 7.06895 36.7213C7.07379 36.7135 7.07862 36.7058 7.08346 36.698C7.9759 35.2577 8.85663 33.8102 9.73467 32.3612C10.3959 31.2698 11.0564 30.178 11.7188 29.0873C11.7515 29.0603 11.7843 29.0334 11.8169 29.0064C12.7235 28.2532 13.608 27.474 14.4809 26.6821C15.4026 25.846 16.3076 24.9916 17.1984 24.1228C18.1453 23.1994 19.0763 22.2595 19.991 21.3042C20.9234 20.3304 21.8392 19.3406 22.7353 18.3333C23.6139 17.3459 24.4738 16.3417 25.3084 15.3168C26.094 14.3523 26.8578 13.3695 27.587 12.3616C28.2832 11.3993 28.9537 10.4156 29.5688 9.39924C29.8244 8.97671 30.0701 8.54807 30.301 8.11143C30.5898 7.56521 30.9183 6.98326 31.0392 6.37517C31.1337 5.90071 31.193 5.37786 31.0004 4.91712C30.9116 4.70467 30.8072 4.49979 30.6266 4.34825C30.4437 4.19489 30.2894 4.1329 30.0612 4.07854C29.7938 4.01482 29.4915 4.0643 29.2299 4.13574C28.9052 4.22444 28.5925 4.37674 28.3004 4.54128C27.567 4.95426 26.9191 5.51565 26.3091 6.0901C25.7047 6.65951 25.1354 7.2702 24.5849 7.89165C23.4672 9.15328 22.3894 10.4502 21.348 11.7755C20.323 13.0799 19.3332 14.4119 18.3728 15.7647C17.3821 17.1604 16.421 18.5773 15.4819 20.0083C14.5799 21.3826 13.6992 22.7708 12.8309 24.1666C12.1339 25.2871 11.446 26.413 10.7604 27.5403C10.0435 28.1245 9.31272 28.6931 8.5532 29.2206C8.03607 29.5798 7.5037 29.928 6.93688 30.2049C6.7523 30.2877 6.5599 30.3617 6.36132 30.3977C6.34342 30.3977 6.32566 30.3969 6.30786 30.3955C6.23932 30.3748 6.16928 30.3712 6.09761 30.3868C5.99225 30.3857 5.89616 30.4185 5.80944 30.4851C5.6211 30.6087 5.46914 30.8552 5.41397 31.0695C5.34816 31.3252 5.32755 31.6152 5.4222 31.8668C5.49212 32.0527 5.62006 32.3167 5.8287 32.3764C5.95149 32.4115 6.06606 32.452 6.19308 32.4516C6.33224 32.4513 6.47466 32.4348 6.61135 32.4071C6.81 32.3668 7.00148 32.2917 7.18598 32.2092C7.56426 32.0402 7.92699 31.8437 8.2799 31.6301C8.07102 31.9745 7.86256 32.3192 7.65321 32.6633C6.7755 34.1056 5.89193 35.5443 4.99419 36.9742C4.53946 37.6985 4.08106 38.4204 3.61809 39.1394C3.33814 39.5741 2.97687 40.0192 2.95298 40.559C2.9382 40.8929 3.00395 41.2667 3.25869 41.5076C3.42417 41.664 3.65686 41.7249 3.87736 41.6649C4.1118 41.6012 4.29775 41.4173 4.4665 41.2561C4.71619 41.0175 4.96794 40.7815 5.22399 40.5498C5.87724 39.9688 6.55308 39.4134 7.24639 38.881C8.03226 38.2774 8.83966 37.7021 9.66248 37.1501C10.5467 36.5569 11.4488 35.9905 12.3642 35.4466C13.3493 34.8612 14.3498 34.3017 15.3618 33.7643C16.4361 33.1937 17.5235 32.6479 18.6211 32.1234C18.7214 32.0755 18.8218 32.028 18.9222 31.9805C20.2358 31.3623 21.5628 30.7731 22.9009 30.21C24.2124 29.6582 25.5348 29.1321 26.8649 28.6267C26.2454 29.2628 25.639 29.9116 25.0506 30.5765C24.2379 31.4952 23.428 32.4327 22.7625 33.4651C22.0105 34.6316 21.4352 35.9161 21.2453 37.3004C21.1511 37.9873 21.204 38.7591 21.5592 39.3704C21.7251 39.6561 21.9621 39.9316 22.2754 40.0567C22.5047 40.1483 22.7443 40.2 22.9901 40.1782C23.2511 40.1551 23.4907 40.1066 23.7285 39.9947C23.9821 39.8755 24.223 39.7406 24.4472 39.5724C24.87 39.2553 25.2503 38.8703 25.5919 38.4679C26.3771 37.5425 26.9513 36.4643 27.5318 35.4056C28.7462 33.1913 29.9982 30.9981 31.2557 28.8082C31.6742 28.0793 32.0933 27.3509 32.5122 26.6223C33.9406 26.1485 35.3757 25.6948 36.8171 25.2621C38.5463 24.7429 40.284 24.2521 42.0286 23.7873C43.2843 23.4526 44.5438 23.1324 45.8062 22.8242C45.5993 23.5268 45.4501 24.2509 45.4719 24.9829C45.4776 25.1732 45.5089 25.367 45.5605 25.5495C45.6404 25.8321 45.8568 26.135 46.1831 26.0959C46.5059 26.0573 46.7349 25.7035 46.7997 25.4076C47.0211 24.3976 47.2787 23.3962 47.5647 22.403C55.9588 20.4364 64.4391 18.4593 73.0063 17.4984C73.4931 17.4438 73.7683 17.1107 73.7255 16.8275C73.6632 16.4131 73.4224 16.1534 72.8787 16.1928C64.6416 17.1171 56.4912 18.618 48.3386 20.1577C48.43 19.9573 48.5224 19.7573 48.6165 19.5581C49.0243 18.6941 49.4576 17.8421 49.9118 17.0014C49.9953 17.2107 50.0982 17.4113 50.2287 17.5963C50.3865 17.8199 50.5862 18.0335 50.8505 18.1281C51.1317 18.2288 51.4031 18.2371 51.6916 18.1458C52.2711 17.9626 52.739 17.4978 53.145 17.069C53.6038 16.5845 54.0018 16.0427 54.3767 15.492C54.7623 14.9254 55.1266 14.3434 55.4741 13.7515C55.8623 13.2159 56.2812 12.7031 56.727 12.2094C57.2301 11.6523 57.746 11.1076 58.2416 10.5448C58.2422 10.8376 58.2559 11.1287 58.2803 11.416C57.5284 12.1131 56.7974 12.8365 56.128 13.6124C55.6818 14.1296 55.229 14.6981 54.9627 15.3331C54.7975 15.7269 54.7061 16.1318 54.7253 16.5605C54.7397 16.8817 54.8407 17.2325 55.0619 17.4752C55.3693 17.8126 55.8126 17.8001 56.224 17.7274C56.6047 17.6601 56.9703 17.5028 57.31 17.3224C57.7639 17.0814 58.1982 16.8021 58.5817 16.4587C59.0154 16.0703 59.3833 15.6263 59.6472 15.1059C59.974 14.4598 60.0649 13.7025 59.9042 12.9981C59.8544 12.7794 59.8006 12.5621 59.7502 12.344C60.2242 11.927 60.7053 11.5181 61.1897 11.1145C61.1784 11.1444 61.1665 11.1741 61.1552 11.2041C60.9459 11.7742 60.7414 12.3552 60.6338 12.9546C60.5149 13.6165 60.4324 14.3599 60.7483 14.9843C60.8577 15.2011 61.034 15.4187 61.2666 15.5092C61.5348 15.6135 61.7714 15.5964 62.0493 15.5271C62.4675 15.4229 62.8559 15.1645 63.168 14.8731C63.6008 14.4688 63.9624 13.9953 64.2886 13.5028C64.7404 12.8197 65.1423 12.1027 65.5371 11.3852C65.5837 11.3003 65.6296 11.2149 65.6756 11.1298C65.5752 11.4902 65.4719 11.8499 65.3631 12.2079C65.2898 12.4489 65.2147 12.6892 65.1372 12.9287C65.1008 13.0399 65.0643 13.151 65.0267 13.2619C65.0075 13.3199 64.9877 13.378 64.9678 13.436C64.9408 13.515 64.8509 13.7695 64.9718 13.4257C64.8801 13.6871 64.8174 13.9299 64.8414 14.2113C64.8588 14.411 64.9266 14.6996 65.078 14.8492C65.2023 14.9724 65.372 15.067 65.5524 14.9937C65.7305 14.9216 65.882 14.7577 65.9558 14.5808C66.1061 14.3514 66.2843 14.1357 66.4509 13.9206C66.8236 13.4384 67.2036 12.9617 67.5844 12.4857C68.1627 11.7624 68.7441 11.0416 69.3256 10.3212C69.2501 10.4993 69.1716 10.6768 69.09 10.8523C68.9764 11.094 68.8411 11.3282 68.748 11.5785C68.5651 12.0699 68.4783 12.6001 68.6187 13.1155C68.7065 13.4372 68.9036 13.788 69.2214 13.9307C69.5514 14.0791 69.8613 13.9983 70.1582 13.8199C70.404 13.6723 70.5876 13.442 70.7779 13.2315C71.3119 12.6402 71.8054 12.0145 72.279 11.3738C72.3966 11.7194 72.6483 12.0318 72.989 12.1748C73.1455 12.2406 73.3248 12.299 73.4979 12.2945C73.7563 12.288 73.9341 12.2193 74.1414 12.0665C74.7175 11.6431 75.2045 11.1053 75.6441 10.5448C76.1067 9.95458 76.5353 9.33947 77.0446 8.78686C77.1972 8.62134 77.272 8.28855 77.2901 8.07668C77.3092 7.84816 77.284 7.54132 77.1677 7.33521ZM17.6641 19.68C17.745 19.5598 17.8264 19.4399 17.9077 19.3199C19.0167 17.691 20.1612 16.0859 21.354 14.5171C22.5788 12.9062 23.854 11.3333 25.1866 9.81017C25.9051 8.98898 26.6423 8.17467 27.4511 7.44046C27.9524 7.00001 28.4936 6.57853 29.0923 6.28041C29.2284 6.22177 29.3685 6.17146 29.5124 6.13631C29.3137 6.58027 29.0797 7.01185 28.8432 7.43507C28.5517 7.95669 28.2416 8.46782 27.9194 8.97093C27.7523 9.23177 27.5812 9.49015 27.4079 9.74697C26.6873 10.8017 25.9234 11.8267 25.133 12.8299C24.2562 13.9427 23.3469 15.0297 22.4151 16.0967C21.4536 17.1979 20.4677 18.2779 19.462 19.3389C18.4708 20.3844 17.4603 21.4118 16.4309 22.4198C15.9451 22.8954 15.4552 23.3669 14.9606 23.8335C15.8431 22.437 16.7413 21.0502 17.6641 19.68ZM39.9115 17.1959C40.4069 16.4265 40.9855 15.7139 41.6361 15.0707C42.4074 14.3382 43.2704 13.7072 44.2055 13.2007C44.2124 13.2435 44.2214 13.2847 44.2329 13.3243C44.1457 13.6395 44.0453 13.9511 43.9332 14.2587C43.6621 14.9521 43.3294 15.6197 42.938 16.2532C42.4714 16.9718 41.9301 17.6396 41.3179 18.2394C41.0231 18.5195 40.7125 18.7921 40.3593 18.9936C40.2369 19.0488 40.1107 19.0907 39.9787 19.1159C39.8995 19.1174 39.8214 19.1101 39.7433 19.0957C39.6847 19.072 39.6286 19.0438 39.5748 19.0107C39.5306 18.9708 39.4896 18.9281 39.4508 18.883C39.4241 18.8401 39.3997 18.7961 39.3767 18.7512C39.3613 18.7063 39.3472 18.6609 39.3349 18.6151C39.3324 18.5935 39.3302 18.5718 39.3284 18.5503C39.3317 18.4966 39.3366 18.443 39.3433 18.3896C39.3648 18.3007 39.39 18.2129 39.4189 18.126C39.5543 17.8018 39.7268 17.4947 39.9115 17.1959ZM27.5447 20.6494C27.2662 21.0449 26.9524 21.4137 26.5961 21.7412C26.2911 21.9969 25.96 22.2179 25.6033 22.3954C25.327 22.5155 25.04 22.6071 24.7419 22.6513C24.5584 22.661 24.376 22.6498 24.1962 22.612C24.0759 22.5702 23.9612 22.5161 23.852 22.4501C23.7983 22.4064 23.7476 22.3593 23.6997 22.3093C23.6758 22.2742 23.6528 22.2385 23.6318 22.2017C23.6247 22.1816 23.6171 22.1615 23.6106 22.1412C23.6075 22.1178 23.605 22.094 23.6027 22.0705C23.6055 22.0259 23.6094 21.9816 23.6148 21.9372C23.6427 21.8232 23.6769 21.7111 23.7167 21.6006C23.95 21.0665 24.2708 20.5671 24.5979 20.0842C24.6621 19.991 24.7281 19.8992 24.7939 19.8072C24.9567 19.59 25.1186 19.3719 25.2804 19.1539C25.9501 18.2962 26.6927 17.4969 27.5006 16.7666C27.5825 16.6946 27.6653 16.6236 27.7486 16.5532C27.8146 16.7016 27.891 16.845 27.9767 16.9802C28.1927 17.3211 28.4681 17.6209 28.7878 17.8645C28.6819 18.2536 28.5497 18.636 28.4027 19.0108C28.165 19.581 27.8834 20.1324 27.5447 20.6494ZM32.3056 20.6586C31.9398 20.998 31.5463 21.3169 31.1053 21.5523C31.0107 21.5954 30.914 21.6308 30.8122 21.653C30.7771 21.6528 30.7421 21.6504 30.7072 21.6458C30.6909 21.6384 30.6745 21.6309 30.6587 21.6225C30.6549 21.6187 30.6514 21.6146 30.6476 21.6108C30.6436 21.604 30.6391 21.5975 30.6353 21.5907C30.6291 21.5718 30.6225 21.5531 30.617 21.534C30.6113 21.4904 30.6069 21.4468 30.6038 21.4029C30.6094 21.3147 30.6199 21.2268 30.6328 21.1393C30.6929 20.841 30.7757 20.5488 30.8791 20.2627C31.0564 19.8334 31.2765 19.4243 31.5219 19.0302C31.8693 18.4999 32.2531 18.0003 32.6542 17.5109C32.7825 17.3908 32.9061 17.2655 33.0231 17.1346C33.0904 17.0593 33.1454 16.9686 33.1891 16.8715C33.5167 16.4904 33.8559 16.1191 34.218 15.7708C34.5128 15.5 34.8277 15.2446 35.1788 15.0515C35.3141 14.9904 35.4545 14.9426 35.6005 14.916C35.6664 14.9151 35.7318 14.9197 35.7967 14.9309C35.8453 14.9505 35.8921 14.9737 35.9373 15.0005C35.975 15.0341 36.0106 15.0698 36.0441 15.1077C36.0697 15.1483 36.093 15.1901 36.1152 15.2327C36.1394 15.3002 36.1604 15.3688 36.1781 15.4383C36.186 15.4958 36.1919 15.5534 36.1958 15.6113C36.1949 15.6353 36.1946 15.6594 36.193 15.6833C35.2336 17.0832 34.269 18.4867 33.1506 19.7652C32.8807 20.0739 32.6005 20.3735 32.3056 20.6586ZM26.9892 33.2025C26.5709 33.9561 26.1748 34.7246 25.7377 35.4673C25.6398 35.6335 25.5388 35.7977 25.4356 35.9606C25.0834 36.4944 24.6929 37.0018 24.2349 37.4495C24.0084 37.6547 23.7657 37.8433 23.4987 37.9925C23.3594 38.0556 23.2149 38.1042 23.0645 38.1311C22.9891 38.1325 22.9145 38.1275 22.8404 38.1147C22.8031 38.1006 22.7665 38.0846 22.7309 38.0667C22.7205 38.056 22.7105 38.0449 22.7004 38.0339C22.6859 38.0103 22.6721 37.9863 22.6591 37.9618C22.6517 37.9391 22.6451 37.9161 22.6387 37.893C22.633 37.8475 22.6288 37.8016 22.6258 37.7559C22.6311 37.6366 22.6423 37.518 22.6589 37.3999C22.7283 37.0541 22.8257 36.7123 22.9464 36.3809C23.1676 35.8378 23.4436 35.3192 23.7544 34.822C24.3882 33.857 25.161 32.9762 25.9245 32.1132C26.7182 31.2161 27.5445 30.3481 28.3918 29.5015C28.8494 29.0442 29.3139 28.5937 29.7825 28.1477C29.832 28.1007 29.8822 28.0545 29.9319 28.0077C29.3794 28.9705 28.8281 29.934 28.2811 30.9C27.8475 31.6658 27.4164 32.4331 26.9892 33.2025ZM38.1089 22.8003C36.9073 23.1487 35.7095 23.5107 34.5161 23.8866C35.3379 23.1701 36.161 22.4554 36.9824 21.7385C37.4812 21.3033 37.9779 20.8657 38.473 20.4262C38.7538 20.7941 39.0979 21.0582 39.5685 21.1506C40.054 21.2459 40.5433 21.0436 40.952 20.8017C41.2819 20.6063 41.5713 20.3464 41.8503 20.0853C42.1566 19.7988 42.4535 19.5023 42.7317 19.1885C43.2621 18.5899 43.7204 17.9351 44.132 17.25C44.8609 16.037 45.3942 14.6823 45.6905 13.295C45.9189 13.0961 46.1509 12.9011 46.3891 12.7143C46.5371 12.5982 46.688 12.4842 46.8433 12.3768C46.5818 13.071 46.2823 13.7509 45.981 14.4285C45.6209 15.2386 45.2528 16.0453 44.9035 16.8601C44.7208 17.2864 44.5432 17.7149 44.3782 18.1484C44.2969 18.3623 44.243 18.564 44.2436 18.7962C44.2441 18.9964 44.2712 19.2256 44.377 19.4012C44.446 19.5159 44.5319 19.6211 44.6487 19.6901C44.8135 19.7874 45.027 19.734 45.1712 19.6302C45.4076 19.4599 45.6138 19.2443 45.8127 19.0335C46.0198 18.8141 46.2125 18.5813 46.3992 18.3446C46.8668 17.7515 47.2987 17.1304 47.7235 16.5064C48.0179 16.0739 48.3072 15.6379 48.5957 15.2014C47.9896 16.7394 47.416 18.2918 46.904 19.8639C46.8047 20.0954 46.7079 20.3278 46.6136 20.5613C46.4226 20.6068 46.2316 20.6519 46.0407 20.6979C44.6918 21.0237 43.3462 21.3642 42.0048 21.7199C40.7021 22.0654 39.4033 22.425 38.1089 22.8003ZM52.6579 15.1636C52.5289 15.3171 52.3943 15.4659 52.2543 15.6095C52.0748 15.7814 51.8826 15.9429 51.6696 16.0706C51.588 16.1087 51.5034 16.1394 51.4157 16.1592C51.3792 16.1593 51.3429 16.1569 51.3068 16.1516C51.2866 16.1423 51.2669 16.1322 51.2478 16.1212C51.2201 16.0944 51.1937 16.0665 51.1692 16.0368C51.138 15.9838 51.11 15.9291 51.0841 15.8732C51.0194 15.691 50.9706 15.5035 50.9316 15.314C50.9266 15.2841 50.9217 15.2543 50.9172 15.2244C51.025 15.0421 51.1328 14.8598 51.2431 14.679C51.6071 14.0895 51.9838 13.5077 52.3808 12.9398C52.7528 12.4077 53.1414 11.8861 53.5608 11.3902C53.7497 11.1667 53.9461 10.9495 54.1514 10.7407C54.4053 10.4941 54.6784 10.2597 54.9841 10.0813C55.085 10.0332 55.1902 9.99462 55.2993 9.97147C55.3357 9.97117 55.372 9.97358 55.4079 9.97853C55.4268 9.98711 55.4455 9.99606 55.4636 10.0064C55.4769 10.0198 55.49 10.0333 55.5024 10.0475C55.5175 10.0741 55.5316 10.101 55.545 10.1284C55.5595 10.1721 55.5726 10.2163 55.584 10.2608C55.5872 10.2885 55.5897 10.3164 55.5917 10.3442C55.59 10.3683 55.5877 10.3926 55.5853 10.4167C55.5756 10.456 55.5644 10.4949 55.5527 10.5335C55.4261 10.8264 55.2556 11.1075 55.1045 11.3854C54.9118 11.7396 54.7142 12.0913 54.5113 12.4398C54.3935 12.6421 54.2732 12.843 54.1512 13.0431C53.6965 13.778 53.2142 14.5015 52.6579 15.1636ZM58.7468 13.7617C58.7432 13.7709 58.7396 13.7801 58.7361 13.7891C58.737 13.7838 58.7379 13.7785 58.7388 13.7734C58.7949 13.6066 58.7724 13.6957 58.7468 13.7617ZM58.711 13.8471C58.6891 13.8983 58.6654 13.9485 58.6398 13.9977C58.5458 14.1451 58.4391 14.2838 58.3233 14.4148C58.0563 14.688 57.7567 14.9291 57.4374 15.1381C57.355 15.1921 57.2705 15.2428 57.1855 15.2926C56.9699 15.4098 56.7459 15.5148 56.5141 15.5962C56.6633 15.4059 56.8197 15.2213 56.9783 15.0406C57.0959 14.9066 57.2167 14.7754 57.3382 14.6449C57.7467 14.2141 58.1694 13.7965 58.6018 13.3886C58.6385 13.5413 58.6759 13.694 58.711 13.8471ZM73.3958 11.0323C73.3897 11.0534 73.3842 11.0747 73.3769 11.0957C73.3151 11.2687 73.3498 11.1657 73.3958 11.0323Z" fill="#A7A7A7"/>
<path d="M78.8598 4.46833C78.9105 4.40882 78.9665 4.33341 79.0356 4.24466C79.1053 4.15586 79.1742 4.06401 79.2497 3.96549C79.3216 3.86722 79.3903 3.77229 79.453 3.684C79.5151 3.59575 79.568 3.51747 79.6113 3.4523C79.6548 3.39021 79.6758 3.34837 79.6812 3.32627C79.6867 3.30416 79.6888 3.2854 79.6877 3.26997C79.6834 3.21134 79.6363 3.18375 79.5478 3.19017C79.4243 3.19913 79.2694 3.24449 79.0861 3.32602L79.0916 3.35354C79.0928 3.36896 79.085 3.40675 79.0655 3.47019C79.0499 3.53646 79.0283 3.61867 79.0009 3.71681C78.9344 3.97906 78.887 4.23062 78.8598 4.46833ZM78.6576 5.47551C78.8149 5.46409 78.9684 5.40023 79.1181 5.28391C79.2678 5.1676 79.4082 5.01163 79.5381 4.81612C79.2388 4.94573 79.0346 5.20738 78.8515 5.30636L78.8041 5.316C78.6777 5.32517 78.5829 5.2545 78.5242 5.10679C78.4785 5.00155 78.4485 4.87036 78.4371 4.713C78.416 4.42298 78.4328 4.13021 78.4907 3.83757C78.5187 3.65874 78.5557 3.50718 78.605 3.37954C78.6546 3.25498 78.7007 3.18029 78.7504 3.15498L78.7451 3.13055C78.7438 3.11204 78.7531 3.09585 78.7759 3.07869C78.8052 3.05485 78.8821 3.02446 78.9995 2.98803C79.1114 2.9644 79.2106 2.951 79.2957 2.94483C79.4291 2.93515 79.5538 2.94161 79.6653 2.96143C79.7909 2.98954 79.8845 3.04478 79.952 3.12673C79.9904 3.17977 80.0121 3.23712 80.0162 3.29266C80.0294 3.47469 79.9075 3.74096 79.6504 4.08839C79.5466 4.22309 79.4269 4.37444 79.288 4.5427L79.5193 4.46079C79.6034 4.43298 79.6884 4.41751 79.7705 4.41155C79.8426 4.26675 79.904 4.11962 79.9618 3.97275C80.0687 3.68585 80.1426 3.42926 80.178 3.20648C80.189 3.11573 80.1931 3.03479 80.1884 2.97C80.1631 2.80745 80.0968 2.70061 79.9895 2.64325C79.9216 2.61096 79.8381 2.59841 79.7391 2.6056C79.626 2.6138 79.5049 2.6474 79.368 2.70696C79.2045 2.77775 79.0431 2.87011 78.8796 2.99052C78.7162 3.11094 78.5776 3.23575 78.4666 3.36787C78.3395 3.51356 78.2529 3.64391 78.2132 3.75845C78.1025 4.17899 78.0494 4.53643 78.0597 4.82413C78.0678 4.9352 78.0815 5.02725 78.104 5.10316C78.1505 5.26728 78.2411 5.37856 78.383 5.4365C78.461 5.47116 78.5515 5.4832 78.6576 5.47551ZM78.8882 5.81236C78.7547 5.82204 78.627 5.8127 78.501 5.78772C78.3026 5.74939 78.1281 5.66901 77.971 5.54703C77.8071 5.41935 77.6846 5.24835 77.604 5.03398C77.5454 4.89556 77.5138 4.74278 77.5019 4.57925C77.4943 4.47435 77.493 4.35968 77.5049 4.24097C77.4841 4.23627 77.4632 4.23158 77.4451 4.22359C77.3918 4.19955 77.3606 4.14908 77.3555 4.07812C77.347 3.96087 77.401 3.80187 77.5168 3.59807C77.6051 3.44279 77.7214 3.28547 77.8678 3.12287C78.0106 2.96053 78.1758 2.81518 78.3616 2.68073C78.6724 2.45967 78.9904 2.33736 79.3155 2.31377C79.4559 2.30358 79.5865 2.30341 79.7147 2.31892C80.0826 2.36046 80.348 2.46527 80.5086 2.63661C80.5828 2.71497 80.6246 2.81429 80.6333 2.93462L80.6375 2.99324C80.6242 3.47185 80.5404 3.93077 80.3903 4.37278C80.3026 4.63347 80.1882 4.86509 80.0487 5.07371C79.7418 5.53331 79.3537 5.77858 78.8882 5.81236Z" fill="#A7A7A7"/>
<path d="M76.4657 15.7738C75.9714 15.7666 75.4689 15.8068 74.9887 15.9058C74.8041 15.9439 74.6513 16.0505 74.5535 16.1719C74.444 16.309 74.3793 16.5072 74.403 16.6649C74.4247 16.8105 74.48 16.9752 74.6314 17.0753C74.7631 17.1627 74.9323 17.2183 75.1152 17.1806C75.3812 17.1257 75.6521 17.0899 75.9255 17.0712C76.0312 17.0674 76.1365 17.0656 76.2421 17.0671C76.4332 17.07 76.5936 17.0196 76.7294 16.9145C76.8725 16.8033 76.9772 16.6241 76.9961 16.4725C77.0162 16.3142 77.0033 16.1363 76.8868 16C76.7952 15.8921 76.6527 15.7765 76.4657 15.7738Z" fill="#A7A7A7"/>
</g>
<defs>
<clipPath id="clip0_1_231">
<rect width="81.0997" height="36.174" fill="white" transform="translate(0 5.87617) scale(1.00124) rotate(-4.15)"/>
</clipPath>
</defs>
</svg>
