<svg width="110" height="35" viewBox="0 0 110 35" fill="none" xmlns="http://www.w3.org/2000/svg">
<g clip-path="url(#clip0_1_207)">
<path d="M94.7694 15.5441L94.7752 15.3969L94.7899 15.3974C95.1434 15.4112 95.4324 15.3143 95.6567 15.1067C95.8811 14.8991 96.0002 14.6186 96.014 14.2651L96.2021 9.43441C96.2166 9.0613 96.1493 8.76861 96.0003 8.5563C95.8611 8.34438 95.546 8.22886 95.055 8.20974L95.0608 8.06247L96.5188 8.11924C96.9215 8.13492 97.2315 8.12735 97.449 8.09646C97.6764 8.066 97.845 8.02339 97.9554 7.96869C98.0662 7.90417 98.1472 7.83848 98.1991 7.77167L98.3464 7.77741L98.2866 9.69258C98.5618 9.19198 98.9655 8.7947 99.4982 8.50076C100.031 8.20686 100.587 8.07115 101.166 8.09371C101.726 8.1155 102.186 8.29077 102.547 8.61948C102.908 8.94821 103.132 9.37976 103.219 9.91416C103.515 9.39467 103.924 8.98777 104.447 8.69346C104.979 8.39955 105.545 8.26422 106.144 8.28755C106.802 8.31317 107.319 8.54962 107.695 8.99694C108.08 9.44464 108.259 10.0219 108.232 10.7289L108.076 14.7348C108.062 15.0883 108.159 15.3772 108.367 15.6016C108.574 15.826 108.855 15.9451 109.208 15.9589L109.223 15.9595L109.217 16.1067L104.725 15.9318L104.731 15.7845L104.746 15.7851C105.099 15.7989 105.388 15.702 105.613 15.4944C105.837 15.2868 105.956 15.0062 105.97 14.6528L106.132 10.4996C106.151 10.0087 106.068 9.61209 105.883 9.30989C105.698 9.00769 105.449 8.85048 105.134 8.83824C104.83 8.82639 104.505 8.95142 104.161 9.21333C103.817 9.46543 103.514 9.80272 103.251 10.2252C103.26 10.2452 103.264 10.2699 103.263 10.2994C103.262 10.3288 103.261 10.3534 103.26 10.373L103.098 14.541C103.084 14.8944 103.181 15.1834 103.389 15.4078C103.596 15.6322 103.877 15.7513 104.23 15.765L104.245 15.7656L104.239 15.9129L99.7474 15.738L99.7531 15.5907L99.7679 15.5913C100.121 15.605 100.41 15.5081 100.635 15.3005C100.859 15.0929 100.978 14.8124 100.992 14.4589L101.154 10.3057C101.173 9.81483 101.09 9.41825 100.905 9.11605C100.73 8.81423 100.485 8.6572 100.171 8.64497C99.8668 8.63312 99.5424 8.75323 99.1983 9.00534C98.8644 9.24801 98.566 9.58546 98.3034 10.0177L98.1348 14.3477C98.121 14.7011 98.218 14.9901 98.4255 15.2145C98.633 15.4389 98.9137 15.558 99.2671 15.5718L99.2818 15.5723L99.2761 15.7196L94.7694 15.5441Z" fill="#A7A7A7"/>
<path d="M91.6561 15.8359L91.7153 13.9355C91.4405 14.4263 91.0367 14.8187 90.5043 15.1126C89.9715 15.4065 89.4155 15.5422 88.8364 15.5196C88.1784 15.494 87.6566 15.2574 87.271 14.8097C86.8949 14.3624 86.7209 13.7852 86.7485 13.0783L86.9045 9.07238C86.919 8.69927 86.8566 8.40677 86.7174 8.19485C86.5781 7.98293 86.2581 7.86721 85.7574 7.84772L85.7631 7.70044L87.2506 7.75836C87.7514 7.77786 88.1364 7.73878 88.4057 7.64109C88.6553 7.54263 88.8322 7.41677 88.9366 7.26352L89.0839 7.26925L88.8488 13.3076C88.8297 13.7985 88.9125 14.1951 89.0975 14.4973C89.2822 14.7995 89.5318 14.9567 89.8461 14.9689C90.1504 14.9808 90.4696 14.8654 90.8036 14.6227C91.1379 14.3702 91.4362 14.0279 91.6991 13.5956L91.8677 9.26566C91.8814 8.91219 91.8042 8.62403 91.6358 8.40113C91.4675 8.17825 91.1672 8.05838 90.7353 8.04156L90.7411 7.89428L92.2286 7.95221C92.7293 7.97171 93.1143 7.93262 93.3836 7.83494C93.643 7.73686 93.8248 7.61119 93.9293 7.45793L94.0766 7.46367L93.8004 14.1789C93.7866 14.5324 93.8831 14.8262 94.0905 15.0605C94.298 15.2849 94.5787 15.404 94.9321 15.4177L94.927 15.5503L93.4689 15.4935C93.2135 15.4836 92.9874 15.4797 92.7909 15.4819C92.5936 15.4939 92.4309 15.5072 92.3026 15.5219C92.0352 15.5704 91.844 15.6761 91.7297 15.8388L91.6561 15.8359Z" fill="#A7A7A7"/>
<path d="M82.5327 15.2742C82.2773 15.2642 82.0863 15.2469 81.9595 15.2223C81.8327 15.1977 81.7108 15.1684 81.5941 15.1344C81.4872 15.1007 81.3409 15.0704 81.1552 15.0435C80.9695 15.0166 80.685 14.9957 80.3021 14.9808L80.0565 12.1982L80.2479 12.2057C80.369 13.1347 80.6364 13.8433 81.0502 14.3314C81.4643 14.8097 81.9266 15.0588 82.4371 15.0787C82.9378 15.0982 83.3197 15.0098 83.5831 14.8136C83.8563 14.6177 83.9997 14.343 84.0135 13.9896C84.0223 13.7638 83.971 13.5651 83.8597 13.3936C83.7585 13.2126 83.5739 13.0284 83.306 12.841C83.0384 12.6438 82.6738 12.4083 82.2125 12.1347L81.7945 11.8824C81.2665 11.557 80.8776 11.1879 80.6282 10.775C80.3888 10.3527 80.2785 9.90587 80.2968 9.43458C80.3228 8.76694 80.5839 8.25101 81.0799 7.88682C81.5858 7.52302 82.246 7.35698 83.061 7.38872C83.2672 7.39674 83.4338 7.41306 83.5606 7.43767C83.6874 7.46228 83.8093 7.4916 83.9259 7.52565C84.0426 7.55969 84.1889 7.58996 84.3649 7.61649C84.5409 7.64302 84.7761 7.662 85.0707 7.67347L85.1845 10.0527L85.0078 10.0458C84.9669 9.58203 84.8502 9.16939 84.6578 8.8079C84.4754 8.43697 84.2507 8.14797 83.9835 7.94089C83.7167 7.724 83.4409 7.61001 83.1561 7.59892C82.7829 7.58439 82.4798 7.67091 82.2462 7.85849C82.0227 8.04646 81.9039 8.31716 81.8901 8.67062C81.8798 8.93572 81.9536 9.18442 82.1118 9.41676C82.2801 9.63966 82.6047 9.88827 83.0857 10.1627L83.519 10.4008C84.1924 10.781 84.6788 11.1687 84.9782 11.5639C85.2776 11.959 85.4154 12.4561 85.3921 13.055C85.3325 14.5867 84.3794 15.3264 82.5327 15.2742Z" fill="#A7A7A7"/>
<path d="M70.3488 17.6908L70.3546 17.5435L70.3693 17.5441C70.7228 17.5579 71.0118 17.461 71.2361 17.2533C71.4607 17.0458 71.5796 16.7652 71.5934 16.4118L71.9019 8.48826C71.909 8.05589 71.8275 7.74786 71.6577 7.56425C71.4878 7.38063 71.187 7.28042 70.7549 7.26359L70.7606 7.11631L72.2187 7.17309C72.798 7.19565 73.1978 7.15714 73.4179 7.05754C73.6383 6.95795 73.8005 6.83151 73.9047 6.67825L74.052 6.68398L73.9933 8.5697C74.2364 8.13666 74.5945 7.78186 75.0672 7.50527C75.5403 7.22869 76.032 7.10033 76.5425 7.12021C77.0924 7.14163 77.5719 7.32747 77.981 7.67773C78.3904 8.028 78.7014 8.49736 78.9144 9.08583C79.1379 9.66486 79.2348 10.3275 79.2058 11.0737C79.1737 11.8984 78.9985 12.6095 78.6802 13.2067C78.362 13.804 77.9265 14.259 77.3733 14.5718C76.8301 14.885 76.1903 15.0273 75.4539 14.9986C75.0516 14.9829 74.725 14.9063 74.4746 14.7687C74.2241 14.6409 74.001 14.4307 73.8059 14.1379L73.7142 16.4943C73.7004 16.8478 73.7974 17.1368 74.0049 17.3612C74.2127 17.5856 74.4931 17.7047 74.8465 17.7184L74.8613 17.719L74.8555 17.8663L70.3488 17.6908ZM75.1544 14.7362C75.6846 14.7568 76.1001 14.4436 76.4005 13.7964C76.6916 13.1391 76.8614 12.187 76.91 10.94C76.9933 8.79962 76.6032 7.71258 75.739 7.67892C75.4052 7.66593 75.0711 7.78567 74.7367 8.03815C74.4024 8.29063 74.1591 8.60566 74.0067 8.98322L73.873 12.4148C73.8455 13.1217 73.9467 13.6812 74.1764 14.0933C74.4064 14.5055 74.7323 14.7197 75.1544 14.7362Z" fill="#A7A7A7"/>
<path d="M66.4504 14.4414L66.4562 14.2941L66.4709 14.2947C66.8244 14.3085 67.1134 14.2116 67.3377 14.004C67.5623 13.7964 67.6812 13.5159 67.695 13.1624L67.8831 8.3317C67.8976 7.95859 67.8305 7.66591 67.6813 7.45359C67.542 7.24167 67.2271 7.12615 66.736 7.10703L66.7418 6.95976L68.244 7.01825C68.7447 7.03775 69.1298 6.99867 69.3991 6.90098C69.6489 6.80254 69.8258 6.67667 69.93 6.52341L70.0773 6.52914L69.8158 13.245C69.802 13.5984 69.899 13.8874 70.1065 14.1118C70.3143 14.3362 70.5947 14.4553 70.9481 14.4691L70.9628 14.4696L70.9571 14.6169L66.4504 14.4414ZM69.0383 5.55943C68.6848 5.54567 68.3947 5.4213 68.1678 5.18629C67.9514 4.94186 67.8497 4.6429 67.8635 4.28944C67.8773 3.93597 68.0016 3.65073 68.2361 3.4337C68.4809 3.20723 68.78 3.10088 69.1335 3.11464C69.4772 3.12803 69.7575 3.25694 69.974 3.50137C70.2004 3.74619 70.307 4.04042 70.2936 4.38407C70.2802 4.72771 70.1511 5.01277 69.9063 5.23924C69.6715 5.46609 69.382 5.57282 69.0383 5.55943Z" fill="#A7A7A7"/>
<path d="M62.2169 14.4831C61.4119 14.4517 60.7113 14.2622 60.1151 13.9145C59.5288 13.5671 59.0803 13.0924 58.7693 12.4903C58.4585 11.8882 58.3186 11.1846 58.35 10.3795C58.3813 9.57437 58.5755 8.88375 58.9321 8.30764C59.2891 7.73154 59.7731 7.29314 60.3846 6.99245C61.006 6.69215 61.7193 6.55767 62.5243 6.58902C63.3296 6.62038 64.0252 6.80972 64.6114 7.15704C65.1979 7.50438 65.6464 7.9791 65.9572 8.5812C66.2683 9.18332 66.4079 9.88693 66.3765 10.692C66.3452 11.4972 66.1513 12.1878 65.7944 12.7639C65.4377 13.34 64.9536 13.7784 64.3419 14.0791C63.7304 14.3797 63.0222 14.5144 62.2169 14.4831ZM62.2096 14.291C62.5534 14.3044 62.8546 14.1441 63.1134 13.81C63.3724 13.4759 63.5816 13.0268 63.7411 12.4627C63.9012 11.8887 63.9943 11.263 64.0207 10.5855C64.0494 9.84916 64.001 9.19828 63.8755 8.63289C63.7604 8.05808 63.5811 7.6086 63.338 7.28446C63.1052 6.95089 62.8317 6.77799 62.5174 6.76575C62.1837 6.75276 61.8824 6.9131 61.6137 7.24681C61.3549 7.58091 61.1457 8.03001 60.986 8.59412C60.8265 9.15826 60.7333 9.77903 60.707 10.4565C60.6779 11.2027 60.7259 11.8634 60.851 12.4386C60.9761 13.0138 61.1554 13.4633 61.3885 13.7871C61.6317 14.1112 61.9054 14.2792 62.2096 14.291Z" fill="#A7A7A7"/>
<path d="M54.1254 17.2655C53.0847 17.225 52.2458 17.0497 51.6088 16.7397C50.9812 16.44 50.6764 16.0643 50.694 15.6126C50.7074 15.269 50.8814 14.966 51.2161 14.7037C51.5602 14.4516 52.02 14.263 52.5952 14.1379C51.6815 13.8663 51.2362 13.4311 51.2595 12.8321C51.2721 12.5081 51.4113 12.2137 51.6774 11.9487C51.9439 11.6739 52.3108 11.462 52.7789 11.3131C52.2963 11.0779 51.9256 10.7488 51.6668 10.3257C51.4178 9.90305 51.3042 9.41187 51.326 8.85222C51.3577 8.03728 51.663 7.39526 52.2417 6.92613C52.8302 6.45739 53.6009 6.24155 54.5532 6.27863C55.0048 6.29622 55.4439 6.38214 55.8707 6.53644L58.5806 6.64196L58.423 6.90133L56.42 6.82333C56.8038 7.06445 57.0915 7.38048 57.2828 7.77143C57.4842 8.15295 57.5753 8.59407 57.5558 9.09481C57.5241 9.90975 57.2186 10.5567 56.6395 11.0356C56.0704 11.5052 55.305 11.7212 54.3427 11.6837C53.8125 11.6631 53.3493 11.5663 52.9528 11.3936C52.632 11.5483 52.4673 11.7385 52.4585 11.9643C52.4509 12.1607 52.5833 12.2986 52.8554 12.378C52.9914 12.4227 53.1863 12.4647 53.4405 12.5041C53.6947 12.5435 54.0033 12.5752 54.3661 12.5991L54.8804 12.6486C56.0079 12.7319 56.8684 12.9817 57.462 13.3982C58.0652 13.815 58.3537 14.3621 58.3273 15.0396C58.2979 15.7956 57.9119 16.3657 57.1692 16.7498C56.4261 17.1437 55.4117 17.3156 54.1254 17.2655ZM54.3349 11.5064C54.6392 11.5182 54.8985 11.2973 55.1129 10.8434C55.3076 10.3889 55.4199 9.77864 55.4497 9.0128C55.4799 8.23715 55.4155 7.62004 55.2563 7.16152C55.0871 6.71242 54.85 6.48194 54.5457 6.4701C54.2315 6.45786 53.9775 6.66922 53.7836 7.10417C53.5892 7.54892 53.477 8.15915 53.4468 8.9348C53.4166 9.71045 53.4808 10.3325 53.6396 10.8008C53.7987 11.2594 54.0306 11.4945 54.3349 11.5064ZM54.2948 17.0803C54.7464 17.0979 55.1664 17.0455 55.5547 16.9229C55.9426 16.8102 56.254 16.6404 56.489 16.4135C56.7339 16.1871 56.8622 15.9216 56.8741 15.6173C56.8871 15.2835 56.7256 15.0117 56.3896 14.8019C56.0336 14.6012 55.4825 14.4814 54.7368 14.4425L54.2225 14.393C53.938 14.3721 53.6737 14.3422 53.4295 14.3031C53.1946 14.2743 52.9846 14.2367 52.7996 14.1901C52.5908 14.2508 52.4331 14.3823 52.327 14.5847C52.2209 14.7871 52.1621 15.0306 52.1511 15.3154C52.1312 15.8259 52.3068 16.2409 52.6778 16.5601C53.0489 16.8794 53.5879 17.0528 54.2948 17.0803Z" fill="#A7A7A7"/>
<path d="M46.2668 13.862C45.4617 13.8307 44.7611 13.6411 44.1649 13.2934C43.5787 12.9461 43.1299 12.4714 42.8191 11.8693C42.5083 11.2672 42.3685 10.5636 42.3998 9.75843C42.4312 8.95333 42.6253 8.26271 42.982 7.6866C43.3387 7.11049 43.823 6.6721 44.4345 6.37141C45.0559 6.0711 45.7691 5.93663 46.5742 5.96798C47.3792 5.99932 48.0751 6.18867 48.6613 6.536C49.2475 6.88333 49.6963 7.35806 50.0071 7.96016C50.3179 8.56226 50.4578 9.26588 50.4264 10.071C50.3951 10.8761 50.2009 11.5667 49.8442 12.1428C49.4875 12.7189 49.0032 13.1573 48.3918 13.458C47.7803 13.7587 47.0718 13.8934 46.2668 13.862ZM46.2595 13.67C46.6032 13.6834 46.9045 13.523 47.1632 13.1889C47.422 12.8549 47.6312 12.4057 47.791 11.8416C47.9511 11.2677 48.0442 10.642 48.0705 9.9645C48.0992 9.22812 48.0508 8.57723 47.9253 8.01184C47.81 7.43703 47.631 6.98756 47.3878 6.66341C47.1551 6.32985 46.8816 6.15695 46.5673 6.14471C46.2335 6.13171 45.9323 6.29206 45.6636 6.62577C45.4048 6.95987 45.1956 7.40897 45.0358 7.97308C44.8761 8.53721 44.7832 9.15799 44.7568 9.83546C44.7278 10.5817 44.7758 11.2424 44.9009 11.8176C45.026 12.3928 45.2052 12.8423 45.4384 13.166C45.6815 13.4902 45.9552 13.6581 46.2595 13.67Z" fill="#A7A7A7"/>
<path d="M33.426 13.1556L33.4317 13.0083L33.4464 13.0089C33.7999 13.0227 34.0881 12.9405 34.3115 12.7623C34.5347 12.5842 34.6533 12.3184 34.6671 11.9649L34.9974 3.48179C35.0112 3.12832 34.9142 2.83938 34.7067 2.61496C34.4989 2.39054 34.2185 2.27146 33.8651 2.25769L33.8503 2.25712L33.8561 2.10984L38.5542 2.29279L38.5485 2.44007L38.4896 2.43777C38.1361 2.42401 37.8471 2.52092 37.6227 2.72852C37.3982 2.93611 37.2792 3.21664 37.2655 3.57011L36.9328 12.1122C36.9206 12.4264 36.9847 12.6747 37.1251 12.8571C37.2756 13.0302 37.5424 13.1242 37.9254 13.1391L38.2346 13.1511C39.1083 13.1851 39.8552 12.9438 40.4753 12.4271C41.0952 11.9104 41.5028 11.1642 41.6983 10.1885L41.8455 10.1942L41.2758 13.4613L33.426 13.1556Z" fill="#A7A7A7"/>
<path d="M93.7511 34.349C93.3485 34.3333 92.9639 34.2396 92.5968 34.068L93.2383 32.3673C93.4799 32.4749 93.7417 32.5686 94.0239 32.6486C94.3157 32.7287 94.609 32.7746 94.9035 32.7861C95.2767 32.8006 95.6282 32.7356 95.9583 32.5912C96.2978 32.4569 96.5591 32.1868 96.7421 31.781L96.9196 31.3896L94.2668 24.5159C94.1779 24.2765 94.0573 24.085 93.9057 23.9414C93.7444 23.7876 93.5218 23.7003 93.2374 23.6794L93.2431 23.5321L97.4994 23.6978L97.4937 23.8451C97.2274 23.8642 97.0176 23.9495 96.8642 24.1008C96.7206 24.2526 96.6441 24.4512 96.6345 24.6966C96.6261 24.9127 96.6667 25.1355 96.756 25.3651L98.1076 28.9135L99.731 25.481C99.8379 25.259 99.8956 25.04 99.9041 24.824C99.9136 24.5785 99.8478 24.3744 99.7067 24.2115C99.5752 24.0491 99.3727 23.9478 99.099 23.9076L99.1047 23.7603L101.137 23.8395L101.131 23.9868C100.904 24.0271 100.706 24.1669 100.54 24.4062C100.374 24.6358 100.194 24.9533 100.001 25.3588L96.7249 32.2228C96.3824 32.9369 95.9534 33.476 95.4377 33.8394C94.9221 34.2028 94.36 34.3727 93.7511 34.349Z" fill="#A7A7A7"/>
<path d="M91.0515 31.1463C90.5408 31.1264 90.13 30.9482 89.8186 30.6115C89.5072 30.2749 89.3616 29.8462 89.3819 29.3259L89.6027 23.6558L88.3508 23.607L88.3583 23.4156C89.0377 23.3929 89.6499 23.2004 90.195 22.8381C90.7499 22.4762 91.2118 21.9779 91.5807 21.3433L91.8164 21.3525L91.7338 23.4732L93.6926 23.5495L93.535 23.8089L91.7235 23.7383L91.5153 29.0845C91.4847 29.8699 91.7345 30.2731 92.2647 30.2938C92.4414 30.3007 92.6447 30.2543 92.8748 30.1553C93.1147 30.0564 93.3411 29.9226 93.5542 29.7539L93.5485 29.9012C93.2084 30.301 92.8127 30.6149 92.3613 30.8433C91.9103 31.0617 91.4736 31.1627 91.0515 31.1463Z" fill="#A7A7A7"/>
<path d="M83.8101 30.6579L83.8158 30.5106L83.8305 30.5112C84.184 30.5249 84.473 30.4279 84.6973 30.2204C84.9217 30.0127 85.0409 29.7323 85.0546 29.3787L85.2427 24.5481C85.2573 24.1749 85.1899 23.8822 85.0409 23.6699C84.9017 23.458 84.5867 23.3425 84.0957 23.3234L84.1014 23.1761L85.6036 23.2346C86.1044 23.2541 86.4894 23.215 86.7587 23.1173C87.0083 23.0189 87.1854 22.893 87.2896 22.7398L87.4369 22.7455L87.1754 29.4613C87.1616 29.8149 87.2586 30.1037 87.4661 30.3282C87.6737 30.5526 87.9543 30.6718 88.3077 30.6855L88.3225 30.6861L88.3167 30.8334L83.8101 30.6579ZM86.3979 21.7758C86.0445 21.762 85.7543 21.6376 85.5275 21.4026C85.3107 21.1582 85.2094 20.8592 85.2231 20.5058C85.2369 20.1523 85.361 19.8671 85.5957 19.65C85.8405 19.4236 86.1397 19.3172 86.4931 19.331C86.8369 19.3444 87.1168 19.4733 87.3336 19.7177C87.56 19.9625 87.6666 20.2568 87.6532 20.6004C87.6398 20.9441 87.5107 21.2291 87.2659 21.4556C87.0308 21.6824 86.7417 21.7892 86.3979 21.7758Z" fill="#A7A7A7"/>
<path d="M80.7923 30.7468C80.5369 30.7369 80.3459 30.7194 80.2191 30.695C80.092 30.6703 79.9704 30.6411 79.8537 30.607C79.7468 30.5734 79.6005 30.5429 79.4148 30.5162C79.2288 30.4892 78.9446 30.4684 78.5617 30.4535L78.3161 27.6708L78.5075 27.6782C78.6286 28.6073 78.896 29.3159 79.3098 29.8041C79.7236 30.2822 80.1859 30.5315 80.6967 30.5513C81.1974 30.5708 81.5793 30.4825 81.8427 30.2862C82.1159 30.0904 82.2593 29.8157 82.2731 29.4621C82.2819 29.2363 82.2306 29.0376 82.1193 28.8661C82.0181 28.6852 81.8335 28.501 81.5656 28.3136C81.2977 28.1163 80.9334 27.8809 80.4721 27.6072L80.0541 27.355C79.5258 27.0296 79.1372 26.6604 78.8878 26.2475C78.6484 25.8252 78.5381 25.3784 78.5565 24.9071C78.5825 24.2395 78.8433 23.7236 79.3395 23.3594C79.8451 22.9956 80.5056 22.8295 81.3206 22.8613C81.5268 22.8693 81.6932 22.8856 81.8202 22.9102C81.947 22.9348 82.0689 22.9642 82.1855 22.9982C82.3022 23.0322 82.4485 23.0625 82.6245 23.089C82.8005 23.1156 83.0357 23.1346 83.3303 23.146L83.4441 25.5252L83.2674 25.5183C83.2265 25.0546 83.1098 24.6419 82.9174 24.2805C82.735 23.9095 82.5103 23.6205 82.2431 23.4134C81.9761 23.1965 81.7002 23.0826 81.4157 23.0715C81.0425 23.0569 80.7391 23.1435 80.5058 23.331C80.282 23.519 80.1635 23.7897 80.1497 24.1432C80.1394 24.4083 80.2132 24.657 80.3714 24.8893C80.5397 25.1122 80.8643 25.3608 81.3453 25.6352L81.7786 25.8734C82.452 26.2536 82.9384 26.6413 83.2378 27.0364C83.5369 27.4316 83.675 27.9286 83.6517 28.5276C83.5921 30.0593 82.6388 30.799 80.7923 30.7468Z" fill="#A7A7A7"/>
<path d="M71.2108 30.1672L71.2165 30.02L71.2313 30.0205C71.5847 30.0343 71.8735 29.9373 72.0981 29.7298C72.3224 29.522 72.4416 29.2417 72.4554 28.8881L72.6435 24.0574C72.658 23.6843 72.5907 23.3916 72.4417 23.1793C72.3024 22.9674 71.9872 22.8518 71.4964 22.8327L71.5021 22.6855L72.9602 22.7422C73.4804 22.7625 73.8752 22.7287 74.1441 22.6408C74.4135 22.5431 74.6053 22.413 74.7199 22.2503L74.7935 22.2531L74.7142 24.669C74.8532 24.3794 75.0272 24.0765 75.2363 23.7601C75.4551 23.4441 75.7207 23.1841 76.0337 22.9799C76.3565 22.7663 76.7341 22.6679 77.1662 22.6848C77.3135 22.6905 77.4699 22.7113 77.6358 22.7473C77.8013 22.7832 77.976 22.8441 78.1596 22.9299L77.5182 24.6307C77.1723 24.4206 76.8684 24.2711 76.6064 24.1822C76.3541 24.0937 76.1297 24.0457 75.9335 24.038C75.5995 24.025 75.3451 24.1184 75.1703 24.318C75.005 24.5181 74.8582 24.7582 74.7293 25.0384L74.5762 28.9707C74.5624 29.3242 74.6591 29.613 74.8669 29.8376C75.0744 30.0619 75.355 30.1811 75.7085 30.1949L75.7232 30.1954L75.7175 30.3427L71.2108 30.1672Z" fill="#A7A7A7"/>
<path d="M67.5407 30.2011C66.8632 30.1748 66.2659 29.9843 65.7486 29.6299C65.2415 29.2756 64.8518 28.7983 64.5802 28.1978C64.3089 27.5874 64.1882 26.8992 64.218 26.1334C64.2486 25.3479 64.4374 24.6669 64.7844 24.0905C65.1313 23.514 65.5909 23.0746 66.1632 22.7724C66.7458 22.4608 67.3953 22.3189 68.112 22.3468C68.7111 22.3701 69.2367 22.5086 69.6888 22.7622C70.1509 23.0162 70.5111 23.3645 70.7691 23.8073C71.0375 24.2405 71.1804 24.7378 71.1978 25.2989L71.2039 25.5204L66.2554 25.3277L66.2526 25.4014C66.212 26.4421 66.4104 27.2857 66.8473 27.932C67.2847 28.5686 67.8912 28.9019 68.6668 28.9321C69.1381 28.9505 69.5893 28.855 70.0202 28.6456C70.4615 28.4268 70.8222 28.1261 71.1026 27.7437L71.2334 27.7931C71.0472 28.2873 70.7696 28.719 70.4012 29.0883C70.0329 29.4574 69.6041 29.7405 69.1144 29.9379C68.625 30.1351 68.1003 30.2229 67.5407 30.2011ZM66.2788 25.1074L69.2685 25.2238C69.2987 24.4482 69.1956 23.8148 68.959 23.3238C68.7323 22.8331 68.3932 22.579 67.9414 22.5614C67.5096 22.5446 67.1419 22.7663 66.8388 23.2264C66.5358 23.6867 66.3492 24.3136 66.2788 25.1074Z" fill="#A7A7A7"/>
<path d="M60.4772 29.9852L57.8102 23.0962C57.7209 22.8666 57.5957 22.6749 57.4344 22.5211C57.2831 22.3677 57.0653 22.2806 56.7808 22.2596L56.7866 22.1124L60.9103 22.2729L60.9046 22.4202C60.5593 22.4461 60.3277 22.5895 60.2093 22.8504C60.1009 23.1117 60.1221 23.4468 60.2734 23.8559L61.6522 27.4643L63.2892 24.0618C63.396 23.8398 63.4538 23.6208 63.4622 23.4048C63.4718 23.1594 63.406 22.9552 63.2648 22.7924C63.1237 22.6296 62.9211 22.5282 62.6572 22.4885L62.6629 22.3412L64.9899 22.4318L64.9841 22.5791C64.7265 22.628 64.4754 22.7658 64.2306 22.9922C63.9857 23.2187 63.7619 23.5345 63.5594 23.9396L60.6098 29.9904L60.4772 29.9852Z" fill="#A7A7A7"/>
<path d="M52.8446 29.452L52.8503 29.3047L52.865 29.3053C53.2185 29.319 53.5075 29.222 53.7318 29.0145C53.9562 28.8068 54.0753 28.5264 54.0891 28.1728L54.2772 23.3422C54.2917 22.969 54.2244 22.6763 54.0754 22.464C53.9362 22.2521 53.6212 22.1366 53.1302 22.1175L53.1359 21.9702L54.6381 22.0287C55.1389 22.0482 55.5239 22.0091 55.7932 21.9114C56.0428 21.813 56.2199 21.6871 56.3241 21.5339L56.4714 21.5396L56.2099 28.2554C56.1961 28.609 56.2931 28.8978 56.5006 29.1223C56.7082 29.3467 56.9888 29.4659 57.3422 29.4796L57.357 29.4802L57.3512 29.6275L52.8446 29.452ZM55.4324 20.5699C55.079 20.5561 54.7888 20.4317 54.562 20.1967C54.3452 19.9523 54.2439 19.6533 54.2576 19.2999C54.2714 18.9464 54.3955 18.6612 54.6302 18.4441C54.875 18.2177 55.1742 18.1113 55.5276 18.1251C55.8714 18.1385 56.1513 18.2674 56.3681 18.5118C56.5945 18.7566 56.7011 19.0509 56.6877 19.3945C56.6743 19.7382 56.5452 20.0232 56.3004 20.2497C56.0653 20.4765 55.7762 20.5833 55.4324 20.5699Z" fill="#A7A7A7"/>
<path d="M43.5388 29.0897L43.5445 28.9424L43.5592 28.943C43.9127 28.9568 44.2015 28.8597 44.426 28.6522C44.6504 28.4445 44.7696 28.1641 44.7833 27.8105L44.9714 22.9799C44.986 22.6068 44.9186 22.3141 44.7696 22.1018C44.6304 21.8898 44.3151 21.7743 43.8244 21.7552L43.8301 21.6079L45.2881 21.6647C45.7889 21.6842 46.1739 21.6451 46.4432 21.5474C46.6928 21.449 46.8697 21.3231 46.9742 21.1698L47.1214 21.1756L47.0559 23.238C47.3309 22.7374 47.7348 22.3401 48.2675 22.0462C48.8 21.7523 49.356 21.6166 49.9354 21.6392C50.5931 21.6648 51.1099 21.9012 51.486 22.3485C51.8716 22.7962 52.0509 23.3735 52.0233 24.0805L51.8673 28.0864C51.8536 28.44 51.9503 28.7287 52.1581 28.9533C52.3656 29.1777 52.6462 29.2968 52.9997 29.3106L53.0144 29.3112L53.0087 29.4585L48.5167 29.2835L48.5225 29.1363L48.5372 29.1368C48.8906 29.1506 49.1794 29.0536 49.404 28.8461C49.6283 28.6383 49.7475 28.358 49.7613 28.0044L49.923 23.8512C49.9421 23.3603 49.8591 22.9637 49.6743 22.6615C49.4991 22.3597 49.2544 22.2026 48.9404 22.1904C48.6359 22.1786 48.3117 22.2987 47.9676 22.5508C47.6337 22.7935 47.3353 23.1309 47.0727 23.5632L46.9041 27.8931C46.8903 28.2467 46.9871 28.5355 47.1949 28.7601C47.4024 28.9844 47.683 29.1036 48.0364 29.1173L48.0512 29.1179L48.0454 29.2652L43.5388 29.0897Z" fill="#A7A7A7"/>
<path d="M38.2335 29.0895C37.3693 29.0558 36.6247 28.8596 35.9997 28.501C35.3744 28.1421 34.897 27.6515 34.5672 27.0291C34.2476 26.3971 34.104 25.6688 34.1361 24.844L34.3638 18.9971C34.3775 18.6437 34.2805 18.3548 34.073 18.1303C33.8652 17.9059 33.5849 17.7868 33.2314 17.773L33.1725 17.7708L33.1782 17.6235L37.9206 17.8081L37.9148 17.9554L37.8706 17.9537C37.5172 17.9399 37.2282 18.0369 37.0038 18.2444C36.7792 18.4521 36.6603 18.7326 36.6466 19.086L36.4189 24.9329C36.3783 25.9737 36.6113 26.8088 37.1178 27.4382C37.6344 28.0581 38.3494 28.386 39.2625 28.4215C40.1854 28.4575 40.9239 28.1812 41.4778 27.5932C42.0321 26.9953 42.3291 26.1858 42.3689 25.1646L42.5879 19.5386C42.6044 19.1165 42.4896 18.7777 42.244 18.5223C41.9982 18.2669 41.6646 18.1211 41.2433 18.085L41.249 17.9378L44.2977 18.0565L44.2919 18.2037C43.8688 18.2069 43.5249 18.3263 43.2602 18.5618C42.9953 18.7974 42.8547 19.1262 42.8383 19.5484L42.6192 25.1744C42.5871 25.9991 42.3872 26.7092 42.02 27.3045C41.6623 27.9003 41.1578 28.3576 40.5064 28.6765C39.8648 28.9857 39.1072 29.1235 38.2335 29.0895Z" fill="#A7A7A7"/>
<path fill-rule="evenodd" clip-rule="evenodd" d="M23.5583 2.76232L23.63 0.921354L27.838 1.08521L27.1774 18.0484C26.8918 25.3834 20.714 31.0981 13.379 30.8125C6.35335 30.5389 0.814284 24.8597 0.610466 17.9357L0.579066 17.9345L1.27546 0.0508572L5.48338 0.214716L5.41169 2.05568L12.5125 2.33219L12.5842 0.491226L16.7921 0.655085L16.7205 2.49605L23.5583 2.76232ZM22.9694 17.8845L23.07 15.3027C22.5777 15.7723 22.0523 16.2159 21.4969 16.6314C19.6636 18.0032 17.532 19.0476 15.2314 19.7218C12.9306 20.396 10.4921 20.691 8.05186 20.596L5.30869 20.4892C6.4936 23.9265 9.69121 26.4545 13.5428 26.6045C18.5539 26.7996 22.7743 22.8955 22.9694 17.8845ZM12.4462 14.3009C11.6115 15.1194 10.6792 15.8211 9.67294 16.3881C11.1721 16.3297 12.6469 16.091 14.0471 15.6806C15.8994 15.1378 17.571 14.3095 18.9741 13.2597C20.3767 12.2103 21.4759 10.9663 22.2343 9.61443C22.7131 8.76097 23.0525 7.87112 23.2518 6.96467L16.4212 6.69868C16.2236 7.81149 15.8962 8.89841 15.4442 9.9343C14.728 11.5757 13.7111 13.0605 12.4462 14.3009ZM4.95886 13.6845L5.24783 6.26359L12.1569 6.53263C12.0173 7.12199 11.8258 7.69713 11.5845 8.25016C11.0799 9.40661 10.369 10.4399 9.49784 11.2941C8.62694 12.1481 7.6136 12.806 6.51886 13.2367C6.01042 13.4367 5.48824 13.5862 4.95886 13.6845Z" fill="#A7A7A7"/>
</g>
<defs>
<clipPath id="clip0_1_207">
<rect width="108.537" height="30.7477" fill="white" transform="translate(1.1982) scale(1.00149) rotate(2.23)"/>
</clipPath>
</defs>
</svg>
