<svg width="139" height="27" viewBox="0 0 139 27" fill="none" xmlns="http://www.w3.org/2000/svg">
<g clip-path="url(#clip0_1_177)">
<path d="M138.817 10.6115C138.783 11.2778 138.215 11.7906 137.549 11.7568C136.883 11.7231 136.37 11.1556 136.404 10.4892C136.437 9.82292 137.005 9.31011 137.671 9.34387C138.338 9.37764 138.85 9.94516 138.817 10.6115Z" fill="#A7A7A7"/>
<path d="M103.668 16.5397C103.721 16.3415 103.636 16.1592 103.457 16.0876L96.8229 13.4273C95.9276 13.0682 95.5008 12.153 95.766 11.1588C96.1042 9.88872 97.444 8.91303 98.7586 8.97962L107.496 9.42224L107.005 11.2636L98.268 10.821C98.006 10.8077 97.7392 11.0022 97.6717 11.2554C97.6191 11.4535 97.7038 11.6358 97.8825 11.7074L104.517 14.3677C105.412 14.7268 105.839 15.6419 105.574 16.6362C105.236 17.9063 103.896 18.882 102.581 18.8154L93.844 18.3728L94.3345 16.5314L103.071 16.974C103.333 16.9873 103.601 16.7928 103.668 16.5397Z" fill="#A7A7A7"/>
<path d="M83.0787 8.02974L80.524 17.6202L78.6178 17.5236L81.1729 7.9332L83.0787 8.02974Z" fill="#A7A7A7"/>
<path d="M133.583 10.5881C135.162 10.6681 136.112 11.9696 135.706 13.495L133.907 20.2467L132.001 20.1501L133.8 13.3984C133.935 12.89 133.618 12.4561 133.092 12.4295L129.598 12.2525L127.554 19.9249L125.649 19.8283L127.692 12.1559L123.245 11.9306L121.202 19.603L119.296 19.5065L121.34 11.8341L123.245 11.9306L123.736 10.0893L133.583 10.5881Z" fill="#A7A7A7"/>
<path fill-rule="evenodd" clip-rule="evenodd" d="M51.7505 6.59818C53.3295 6.67817 54.2801 7.97964 53.8738 9.50505L52.5655 14.4154L50.6597 14.3188L50.1692 16.1602L42.8635 15.7901C41.3094 15.7114 40.3641 14.4491 40.7225 12.9546L40.7406 12.8832L42.0487 7.97294L43.9545 8.06948L44.445 6.22811L51.7505 6.59818ZM42.6464 12.9798L42.635 13.0272C42.531 13.515 42.8442 13.9229 43.3541 13.9488L50.6597 14.3188L51.9676 9.40848C52.1032 8.90002 51.7865 8.46623 51.26 8.43956L43.9545 8.06948L42.6464 12.9798Z" fill="#A7A7A7"/>
<path fill-rule="evenodd" clip-rule="evenodd" d="M77.1615 7.88549C78.7405 7.96549 79.6907 9.26692 79.2844 10.7923L77.9765 15.7027L76.0707 15.6062L75.5802 17.4475L68.2742 17.0774C66.7203 16.9987 65.775 15.7364 66.1332 14.2419L66.1514 14.1705L67.4597 9.26025L69.3655 9.35679L69.856 7.51541L77.1615 7.88549ZM68.0571 14.2671L68.046 14.3145C67.942 14.8023 68.2551 15.2102 68.7648 15.236L76.0707 15.6062L77.3786 10.6958C77.5142 10.1873 77.1975 9.75355 76.671 9.72687L69.3655 9.35679L68.0571 14.2671Z" fill="#A7A7A7"/>
<path d="M86.5179 10.2256C85.9913 10.1989 85.4548 10.5895 85.3197 11.098L82.7035 20.9186L80.7978 20.8221L83.414 11.0015C83.8202 9.47604 85.4293 8.30425 87.0084 8.38424L93.3608 8.70604L92.8702 10.5474L94.776 10.644L93.4682 15.5543C93.0619 17.0797 91.4523 18.2515 89.8737 18.1715L85.4266 17.9462L85.9171 16.1049L90.3642 16.3302C90.8903 16.3568 91.4268 15.9662 91.5624 15.4577L92.8702 10.5474L86.5179 10.2256Z" fill="#A7A7A7"/>
<path d="M56.1143 12.5734C55.9792 13.0819 56.2959 13.5157 56.822 13.5424L61.2691 13.7677L60.7786 15.609L56.3315 15.3837C54.7529 15.3038 53.8023 14.0023 54.2086 12.4769L55.1896 8.79414L57.0953 8.89068L57.5859 7.04932L63.9387 7.37114C65.5178 7.45113 66.4679 8.75255 66.0616 10.278L64.1814 17.3366C63.7751 18.862 62.1656 20.0338 60.5865 19.9538L54.4721 19.644L54.963 17.8027L61.0775 18.1125C61.6036 18.1391 62.1401 17.7485 62.2757 17.24L64.1559 10.1815C64.2914 9.67301 63.9747 9.23917 63.4482 9.2125L57.0953 8.89068L56.1143 12.5734Z" fill="#A7A7A7"/>
<path d="M31.8345 12.432L33.6332 5.68036L31.7274 5.58382L29.9287 12.3355C29.5223 13.8609 30.4728 15.1624 32.0516 15.2423L38.893 15.5889L39.3836 13.7476L32.5421 13.401C32.0159 13.3743 31.6991 12.9405 31.8345 12.432Z" fill="#A7A7A7"/>
<path d="M108.674 16.4801L108.662 16.5275C108.558 17.0153 108.872 17.4232 109.381 17.4491L116.687 17.8192L118.731 10.1468L120.637 10.2433L118.593 17.9157L116.687 17.8192L116.197 19.6605L108.891 19.2904C107.337 19.2117 106.391 17.9494 106.75 16.4549L106.768 16.3835L108.567 9.6319L110.472 9.72844L108.674 16.4801Z" fill="#A7A7A7"/>
<path fill-rule="evenodd" clip-rule="evenodd" d="M9.182 0.415602C9.44854 0.429105 9.65365 0.656114 9.64015 0.922644L9.45933 4.49215C9.45388 4.59962 9.58112 4.66002 9.66098 4.58788L13.7109 0.928521C13.901 0.756715 14.1517 0.667393 14.4076 0.680319L18.6341 0.894423C18.762 0.900926 18.8822 0.958024 18.9681 1.05309L20.3426 2.57422C20.5214 2.77222 20.506 3.07773 20.308 3.25664L18.3477 5.02793C18.2678 5.10009 18.3151 5.23275 18.4225 5.23821L22.2748 5.43335C22.4028 5.43986 22.523 5.49696 22.6089 5.59203L23.9833 7.11317C24.1622 7.31116 24.1467 7.61665 23.9487 7.79556L21.9513 9.60043C21.8523 9.68986 21.8445 9.84265 21.934 9.94162L23.4149 11.5806C23.8297 12.0397 24.0452 12.6448 24.0139 13.2628C23.9825 13.8807 23.707 14.461 23.248 14.8758L17.6705 19.9155C17.4803 20.0873 17.2297 20.1766 16.9738 20.1636L15.443 20.0861C15.1765 20.0726 14.9714 19.8456 14.9849 19.5791L15.1657 16.0095C15.1712 15.9021 15.0439 15.8417 14.9641 15.9138L10.9142 19.5732C10.724 19.745 10.4734 19.8343 10.2175 19.8214L5.99098 19.6073C5.863 19.6008 5.7428 19.5437 5.6569 19.4486L4.28247 17.9275C4.10361 17.7295 4.11908 17.424 4.31704 17.2451L6.27735 15.4738C6.35721 15.4016 6.30999 15.2689 6.20251 15.2635L2.35023 15.0684C2.22226 15.0619 2.10209 15.0047 2.01618 14.9097L0.641742 13.3885C0.462871 13.1905 0.478347 12.8851 0.67631 12.7061L2.67378 10.9013C2.77276 10.8118 2.7805 10.6591 2.69106 10.5601L1.21014 8.92112C0.795327 8.46199 0.579878 7.85688 0.611183 7.23892C0.642487 6.62096 0.917983 6.04072 1.37707 5.62586L6.95455 0.586261C7.14469 0.414454 7.39534 0.325133 7.65126 0.338058L9.182 0.415602ZM10.4442 4.83404C9.8042 4.80162 9.17726 5.02492 8.70186 5.4545L3.2858 10.3483C3.12612 10.4926 3.2206 10.7579 3.43553 10.7688L10.4746 11.1254C10.6895 11.1364 10.784 11.4017 10.6244 11.546L6.92652 14.8872C6.76685 15.0315 6.86131 15.2968 7.07625 15.3078L14.1809 15.6677C14.8208 15.7001 15.4478 15.4768 15.9232 15.0472L21.3392 10.1534C21.4889 10.0182 21.4153 9.77639 21.2285 9.7377L21.1895 9.73288L14.1504 9.37629C13.9354 9.3654 13.841 9.10007 14.0007 8.95575L17.6985 5.61449C17.8582 5.47019 17.7637 5.20486 17.5488 5.19394L10.4442 4.83404Z" fill="#A7A7A7"/>
</g>
<defs>
<clipPath id="clip0_1_177">
<rect width="137.733" height="19.2634" fill="white" transform="translate(0.977891) scale(1.00338) rotate(2.9)"/>
</clipPath>
</defs>
</svg>
